<svg width="133" height="57" viewBox="0 0 133 57" fill="none" xmlns="http://www.w3.org/2000/svg">
<path d="M12.7734 46.1875C13.5703 46.1875 14.3438 46.0938 15.1406 45.9531V42.4844C14.3906 42.5547 13.9922 42.5781 13.2656 42.5781C10.6406 42.5781 9.60938 41.3828 9.60938 38.4062V24.1094H15.1406V20.7344H9.60938V14.1953H5.39062V20.7344H1.40625V24.1094H5.39062V39.4375C5.39062 44.2656 7.57031 46.1875 12.7734 46.1875ZM31.1719 46.4453C37.125 46.4453 40.7344 43.0703 41.6016 39.6484L41.6484 39.4609H37.5703L37.4766 39.6719C36.7969 41.1953 34.6875 42.8125 31.2656 42.8125C26.7656 42.8125 23.8828 39.7656 23.7656 34.5391H41.9531V32.9453C41.9531 25.3984 37.7812 20.2891 30.9141 20.2891C24.0469 20.2891 19.5938 25.6328 19.5938 33.4375V33.4609C19.5938 41.3828 23.9531 46.4453 31.1719 46.4453ZM30.8906 23.9219C34.6172 23.9219 37.3828 26.2891 37.8047 31.2812H23.8359C24.2812 26.4766 27.1406 23.9219 30.8906 23.9219ZM57.6094 46.4453C61.125 46.4453 63.9375 44.7812 65.4844 41.9688H65.8594V46H69.9375V10.7031H65.8594V24.7188H65.4844C64.1016 22.0234 61.0781 20.2891 57.6094 20.2891C51.1875 20.2891 47.0156 25.4219 47.0156 33.3438V33.3906C47.0156 41.2656 51.2109 46.4453 57.6094 46.4453ZM58.5469 42.8359C53.9297 42.8359 51.1875 39.2734 51.1875 33.3906V33.3438C51.1875 27.4609 53.9297 23.8984 58.5469 23.8984C63.1406 23.8984 65.9531 27.5078 65.9531 33.3438V33.3906C65.9531 39.2266 63.1406 42.8359 58.5469 42.8359ZM87.0938 46.4453C90.6094 46.4453 93.4219 44.7812 94.9688 41.9688H95.3438V46H99.4219V10.7031H95.3438V24.7188H94.9688C93.5859 22.0234 90.5625 20.2891 87.0938 20.2891C80.6719 20.2891 76.5 25.4219 76.5 33.3438V33.3906C76.5 41.2656 80.6953 46.4453 87.0938 46.4453ZM88.0312 42.8359C83.4141 42.8359 80.6719 39.2734 80.6719 33.3906V33.3438C80.6719 27.4609 83.4141 23.8984 88.0312 23.8984C92.625 23.8984 95.4375 27.5078 95.4375 33.3438V33.3906C95.4375 39.2266 92.625 42.8359 88.0312 42.8359ZM109.406 15.8594C110.953 15.8594 112.219 14.5938 112.219 13.0469C112.219 11.5 110.953 10.2344 109.406 10.2344C107.859 10.2344 106.594 11.5 106.594 13.0469C106.594 14.5938 107.859 15.8594 109.406 15.8594ZM107.344 46H111.422V20.7344H107.344V46ZM128.086 46.1875C128.883 46.1875 129.656 46.0938 130.453 45.9531V42.4844C129.703 42.5547 129.305 42.5781 128.578 42.5781C125.953 42.5781 124.922 41.3828 124.922 38.4062V24.1094H130.453V20.7344H124.922V14.1953H120.703V20.7344H116.719V24.1094H120.703V39.4375C120.703 44.2656 122.883 46.1875 128.086 46.1875Z" fill="black"/>
<ellipse cx="109.5" cy="13.6818" rx="3.5" ry="3.18182" fill="#FF4500"/>
</svg>
