<svg width="60" height="60" viewBox="0 0 60 60" fill="none" xmlns="http://www.w3.org/2000/svg">
<circle cx="30" cy="30" r="30" fill="white"/>
<circle cx="30" cy="30" r="26" fill="#FF4500"/>
<path d="M28.8295 23.5455V26.7273H18.7955V23.5455H28.8295ZM21.2727 19.3636H25.3864V35.75C25.3864 36.303 25.4697 36.7273 25.6364 37.0227C25.8106 37.3106 26.0379 37.5076 26.3182 37.6136C26.5985 37.7197 26.9091 37.7727 27.25 37.7727C27.5076 37.7727 27.7424 37.7538 27.9545 37.7159C28.1742 37.678 28.3409 37.6439 28.4545 37.6136L29.1477 40.8295C28.928 40.9053 28.6136 40.9886 28.2045 41.0795C27.803 41.1705 27.3106 41.2235 26.7273 41.2386C25.697 41.2689 24.7689 41.1136 23.9432 40.7727C23.1174 40.4242 22.4621 39.8864 21.9773 39.1591C21.5 38.4318 21.2652 37.5227 21.2727 36.4318V19.3636ZM41.7699 16.6364L34.2699 44.5H30.6676L38.1676 16.6364H41.7699Z" fill="white"/>
</svg>
